<?xml version="1.0" encoding="UTF-8"?>
<svg id="Layer_2" xmlns="http://www.w3.org/2000/svg" xmlns:xlink="http://www.w3.org/1999/xlink" version="1.1" viewBox="0 0 995.7 995.7">
  <!-- Generator: Adobe Illustrator 30.4.0, SVG Export Plug-In . SVG Version: 2.1.4 Build 226)  -->
  <defs>
    <style>
    </style>
    <symbol id="IBTU-logo" viewBox="0 0 995.7 995.7">
      <g id="Layer_1-2">
        <path d="M956.6,304.1c-37.8-89.4-100.8-165.2-180.4-219.1C696.8,31.4,600.9,0,497.8,0s-134.3,13.9-193.7,39.1c-89.4,37.8-165.2,100.8-219.1,180.4C31.4,298.9,0,394.9,0,497.8s13.9,134.3,39.1,193.7c37.8,89.4,100.8,165.3,180.4,219.1,79.4,53.6,175.4,85,278.3,85s134.3-13.9,193.7-39.1c89.4-37.8,165.3-100.8,219.1-180.4,53.6-79.4,85-175.4,85-278.3s-13.9-134.3-39.1-193.7h0ZM912.5,673.1c-34.1,80.7-91.3,149.5-163.2,198.1-71.9,48.4-158.4,76.9-251.5,76.9s-121.4-12.7-175.2-35.3c-80.6-34.1-149.4-91.3-198.1-163.2-48.4-71.9-76.9-158.4-76.9-251.5s12.7-121.4,35.3-175.2c34.1-80.6,91.2-149.4,163.2-198.1,71.9-48.4,158.4-76.9,251.5-76.9s121.4,12.7,175.2,35.3c80.7,34.1,149.5,91.2,198.1,163.2,48.4,71.9,76.9,158.4,76.9,251.5s-12.7,121.4-35.3,175.2h0Z"/>
        <path d="M799.2,228.6l-33.9-33.7-267.5,267.3L230.3,195l-33.7,33.7,267.5,267.5-267.5,267.5,33.7,33.7,267.5-267.3,267.5,267.3,33.9-33.7-267.5-267.5,267.5-267.5h0Z"/>
        <path d="M182.9,369.8h57.8v254.2h-57.8v-254.2h0Z"/>
        <path d="M409.3,84.6h108.7c46.2,0,79.2,30.6,79.2,72.3s-9.3,36.8-24.3,49.5c20.8,11.9,34.5,31.2,34.5,55.5,0,42.2-33,76.9-82.1,76.9h-116.6l.8-254.2h-.2ZM513.8,186.7c15.6,0,27.2-11.2,27.2-26.8s-11.6-26.8-27.2-26.8h-51.1v53.8h51.1v-.2h0ZM518.2,290.6c19.3,0,32.4-13.1,32.4-29.1s-13.1-29.1-32.4-29.1h-55.5v58.2h55.5Z"/>
        <path d="M753.1,444h-68.4v-53.6h193.9v53.6h-68.2v200.6h-57.4v-200.6h0Z"/>
        <path d="M386.4,800.3v-145.3h57.4v142c0,49.5,26.6,65.1,53.4,65.1s53.4-15.6,53.4-65.1v-142h57.4v145.3c0,82.5-45.9,115.2-110.8,115.2s-110.8-32.6-110.8-115.2h0Z"/>
      </g>
    </symbol>
  </defs>
  <use width="995.7" height="995.7" transform="translate(0 0)" xlink:href="#IBTU-logo"/>
</svg>