<?xml version="1.0" encoding="UTF-8"?>
<svg id="Layer_2" data-name="Layer 2" xmlns="http://www.w3.org/2000/svg" viewBox="0 0 995.67 995.67" fill="#FFC700">
  <g id="Layer_1-2" data-name="Layer 1">
    <path d="M956.59,304.1c-37.83-89.38-100.82-165.25-180.43-219.09C696.76,31.39,600.93,0,497.83,0c-68.59,0-134.28,13.93-193.73,39.08-89.38,37.83-165.25,100.81-219.09,180.43C31.39,298.91,0,394.94,0,497.83c0,68.59,13.93,134.28,39.08,193.73,37.83,89.39,100.81,165.26,180.43,219.09,79.4,53.63,175.44,85.02,278.33,85.02,68.59,0,134.28-13.93,193.73-39.08,89.39-37.83,165.26-100.82,219.09-180.43,53.63-79.41,85.02-175.44,85.02-278.33,0-68.59-13.93-134.28-39.08-193.73ZM912.53,673.06c-34.09,80.65-91.26,149.46-163.18,198.1-71.92,48.43-158.39,76.91-251.52,76.91-62.15,0-121.39-12.68-175.23-35.33-80.65-34.09-149.45-91.26-198.09-163.18-48.43-71.92-76.91-158.39-76.91-251.52,0-62.15,12.68-121.39,35.34-175.23,34.09-80.65,91.25-149.45,163.17-198.09,71.92-48.43,158.4-76.91,251.52-76.91,62.15,0,121.4,12.68,175.23,35.34,80.65,34.09,149.46,91.25,198.1,163.17,48.43,71.92,76.91,158.39,76.91,251.52,0,62.15-12.68,121.4-35.33,175.23Z" fill="#FFC700"></path>
    <path d="M799.24,228.65l-33.89-33.68-267.52,267.32L230.31,194.97l-33.67,33.68,267.52,267.52-267.52,267.52,33.67,33.67,267.52-267.31,267.52,267.31,33.89-33.67-267.53-267.52,267.53-267.52Z" fill="#FFC700"></path>
  </g>
</svg>